<svg width="33" height="32" viewBox="0 0 33 32" fill="none" xmlns="http://www.w3.org/2000/svg">
<g clip-path="url(#clip0_459_8680)">
<path d="M17.3301 17.1221V21.0285C18.8166 20.6636 19.4189 19.7666 19.4189 19.0752C19.4189 18.3839 18.8146 17.4868 17.3301 17.1221Z" fill="#111111"/>
<path d="M31.2024 18.3272L30.0335 16.5307C29.8234 16.2084 29.8234 15.7916 30.0335 15.4686L31.2031 13.6714C32.2677 12.0322 31.5472 9.83651 29.7303 9.1422L27.7292 8.3759C27.3695 8.2379 27.124 7.8999 27.1042 7.51571L26.9941 5.37592C26.8942 3.42806 25.0225 2.07001 23.1401 2.57582L21.0702 3.132C20.699 3.23131 20.3018 3.10275 20.0605 2.80356L18.7128 1.13695C17.4854 -0.380223 15.1737 -0.377973 13.9489 1.13764L12.6013 2.80356C12.3599 3.10275 11.9621 3.23194 11.5915 3.132L9.52242 2.57582C7.64237 2.06938 5.76764 3.42668 5.66776 5.37592L5.55751 7.51653C5.53783 7.90071 5.29301 8.23796 4.93327 8.37602L2.93216 9.14164C1.11305 9.8382 0.394803 12.0349 1.46004 13.6729L2.62822 15.468C2.83835 15.791 2.83835 16.2085 2.62891 16.5308L1.46004 18.3273C0.395303 19.9615 1.11186 22.1622 2.93222 22.8578L4.93333 23.6242C5.29301 23.7621 5.53783 24.0995 5.55757 24.4836L5.6677 26.6241C5.76745 28.5697 7.63656 29.9299 9.52236 29.4242L11.5915 28.8674C11.9614 28.7674 12.3585 28.8959 12.6019 29.1965L13.9489 30.8624C15.173 32.3771 17.4839 32.3811 18.7135 30.8631L20.0605 29.1965C20.3033 28.8966 20.6997 28.7681 21.0703 28.8674L23.1414 29.4249C25.0216 29.9274 26.8941 28.5748 26.9941 26.6241L27.1042 24.4843C27.1239 24.0995 27.3694 23.7622 27.7292 23.6242L29.7303 22.8585C31.5488 22.1621 32.2677 19.9651 31.2024 18.3272ZM21.5068 19.0751C21.5068 20.9275 19.9456 22.7458 17.329 23.166V24.2972C17.329 24.8738 16.8612 25.3416 16.2846 25.3416C15.708 25.3416 15.2402 24.8738 15.2402 24.2972V23.166C12.6626 22.752 11.0625 20.9615 11.0625 19.0751C11.0625 18.4985 11.5303 18.0307 12.1069 18.0307C12.6835 18.0307 13.1513 18.4985 13.1513 19.0751C13.1513 19.7664 13.7556 20.6636 15.2402 21.0284V16.8996C12.6626 16.4855 11.0625 14.695 11.0625 12.8087C11.0625 10.8979 12.6912 9.12714 15.2402 8.7177V7.58659C15.2402 7.00997 15.708 6.54216 16.2846 6.54216C16.8612 6.54216 17.329 7.00997 17.329 7.58659V8.71777C19.9066 9.13183 21.5068 10.9223 21.5068 12.8087C21.5068 13.3853 21.039 13.8531 20.4623 13.8531C19.8857 13.8531 19.4179 13.3853 19.4179 12.8087C19.4179 12.1174 18.8136 11.2202 17.329 10.8554V14.9842C19.9067 15.3982 21.5068 17.1887 21.5068 19.0751Z" fill="#111111"/>
<path d="M13.1523 12.8087C13.1523 13.5001 13.7567 14.3972 15.2412 14.7619V10.8555C13.7547 11.2203 13.1523 12.1173 13.1523 12.8087Z" fill="#111111"/>
</g>
<defs>
<clipPath id="clip0_459_8680">
<rect width="32" height="32" fill="white" transform="translate(0.332031)"/>
</clipPath>
</defs>
</svg>
