<svg width="32" height="32" viewBox="0 0 32 32" fill="none" xmlns="http://www.w3.org/2000/svg">
<path d="M14.81 12.6127C15.4878 12.7572 16.1941 12.6801 16.8249 12.393C17.4556 12.1058 17.9775 11.6237 18.3136 11.0177C17.7719 10.6249 17.3309 10.1095 17.0266 9.51351C16.7223 8.91757 16.5634 8.25806 16.563 7.58893C16.5788 7.19994 16.6558 6.81588 16.7912 6.45085C16.5894 6.35919 16.3786 6.28856 16.1623 6.24008C14.8268 5.95614 11.5073 7.35318 9.73047 8.205C11.0067 9.7025 13.4652 12.3218 14.81 12.6127Z" fill="#111111"/>
<path d="M13.7188 5.39231C14.581 5.09994 15.4971 5.00082 16.4019 5.10199C16.6893 5.16671 16.9695 5.26029 17.2381 5.38128C17.5243 4.8086 17.8409 4.25155 18.1863 3.71249L14.2646 2.58545L13.7188 5.39231Z" fill="#111111"/>
<path d="M20.8103 11.8373C20.4043 11.8372 20.0005 11.7786 19.6113 11.6631C19.5001 13.8348 18.8878 15.9514 17.8223 17.847C18.1154 17.993 18.4378 18.0704 18.7652 18.0735H21.1326C21.5938 18.075 22.0455 18.2049 22.4371 18.4487C22.8286 18.6924 23.1446 19.0404 23.3495 19.4537L24.0608 18.7604C22.6448 16.6727 21.9082 14.1986 21.9519 11.6764C21.5805 11.7819 21.1964 11.836 20.8103 11.8373Z" fill="#111111"/>
<path d="M30.7672 16.9251C30.7702 16.6708 30.6979 16.4214 30.5593 16.2082C30.4207 15.995 30.2221 15.8277 29.9885 15.7272C29.7549 15.6268 29.4968 15.5978 29.2467 15.6439C28.9966 15.69 28.7658 15.8091 28.5834 15.9862L23.5968 20.834C23.538 21.3952 23.2886 21.9193 22.8901 22.3187C22.6617 22.5526 22.3885 22.7381 22.0868 22.864C21.7851 22.9899 21.4611 23.0537 21.1342 23.0515H15.157C15.003 23.0515 14.8553 22.9903 14.7464 22.8814C14.6375 22.7726 14.5764 22.6249 14.5764 22.4709C14.5764 22.3169 14.6375 22.1692 14.7464 22.0603C14.8553 21.9514 15.003 21.8902 15.157 21.8902H21.1325C21.3054 21.8915 21.4769 21.8579 21.6365 21.7913C21.7961 21.7248 21.9407 21.6267 22.0615 21.5029C22.25 21.3189 22.3792 21.0828 22.4327 20.8249C22.4862 20.567 22.4614 20.299 22.3616 20.0553C22.2618 19.8115 22.0915 19.6031 21.8725 19.4568C21.6536 19.3104 21.3959 19.2327 21.1325 19.2337H18.7652C18.1978 19.2317 17.6404 19.0848 17.1457 18.807L15.5141 17.9006C14.3547 17.2509 13.0392 16.932 11.7109 16.9786C10.3827 17.0253 9.09282 17.4358 7.9819 18.1653L4.62109 20.366L7.61899 26.4686L9.59321 26.0099C10.3233 25.8417 11.0791 25.8164 11.8188 25.9356L18.8848 27.0638C19.626 27.1828 20.3851 27.1191 21.0961 26.878C21.8071 26.637 22.4484 26.226 22.9644 25.6807L30.4188 17.8053C30.645 17.5684 30.77 17.2526 30.7672 16.9251Z" fill="#111111"/>
<path d="M17.7246 7.58876C17.7246 8.40757 18.0499 9.19284 18.6289 9.77183C19.2079 10.3508 19.9931 10.6761 20.8119 10.6761C21.6307 10.6761 22.416 10.3508 22.995 9.77183C23.574 9.19284 23.8993 8.40757 23.8993 7.58876C23.8993 6.40249 22.1573 3.7466 20.8119 2C19.466 3.7466 17.7246 6.40249 17.7246 7.58876Z" fill="#111111"/>
<path d="M25.3321 5.31378C26.0386 5.2138 26.7583 5.26125 27.4456 5.45314L26.6496 2.45117L23.3184 3.52654C23.7504 4.18634 24.1383 4.87397 24.4797 5.58494C24.7535 5.46499 25.0392 5.37411 25.3321 5.31378Z" fill="#111111"/>
<path d="M7.35162 28.5568L2.75751 19.2031L0 20.5148L4.13307 29.7942L7.35162 28.5568Z" fill="#111111"/>
<path d="M28.1003 6.83216C28.0887 6.82867 28.0777 6.82635 28.0667 6.82229C26.5616 6.35777 25.8555 6.39028 25.5699 6.45067C25.3419 6.49958 25.1202 6.57418 24.9091 6.67306C25.0023 6.9697 25.0537 7.2779 25.0618 7.58875C25.0614 8.25802 24.9024 8.91769 24.598 9.51374C24.2937 10.1098 23.8525 10.6253 23.3105 11.0181C23.6205 11.6823 24.147 12.2216 24.8036 12.5475C25.4602 12.8734 26.208 12.9665 26.9245 12.8117C28.26 12.5283 30.7226 9.90844 32.0006 8.41211C30.7368 7.7999 29.4339 7.27209 28.1003 6.83216Z" fill="#111111"/>
</svg>
