<svg width="33" height="32" viewBox="0 0 33 32" fill="none" xmlns="http://www.w3.org/2000/svg">
<g clip-path="url(#clip0_459_8660)">
<path fill-rule="evenodd" clip-rule="evenodd" d="M16.7269 16.2141C12.613 16.2141 10.0701 11.9555 12.1138 8.41573L16.6716 0.521484L21.2293 8.41573C23.2369 11.8929 20.7421 16.2141 16.7269 16.2141ZM23.4467 21.421C23.5614 21.3317 23.6771 21.246 23.7941 21.1635C23.3441 19.8891 22.4529 18.6657 21.0326 17.5638C20.141 23.932 14.4666 23.5146 18.5712 30.591C19.3548 27.2455 20.6836 23.5719 23.4467 21.421V21.421ZM32.1624 17.3313C28.5626 22.0007 22.0367 17.8123 19.0947 31.4785L19.0969 31.4688C20.3826 31.3862 21.6276 30.898 22.7238 30.1609C24.0589 29.2632 25.1711 27.9995 25.8696 26.6489C25.9586 26.4762 26.1707 26.4084 26.3434 26.4974C26.5161 26.5864 26.5839 26.7985 26.4949 26.9712C25.7442 28.4227 24.5492 29.7805 23.1149 30.7449C22.7187 31.0114 22.3041 31.248 21.8752 31.4486C29.973 30.909 33.4024 26.2037 32.1624 17.3313ZM9.53718 21.1635C9.65412 21.246 9.76987 21.3317 9.88455 21.421C12.6476 23.5718 13.9764 27.2455 14.76 30.5909C18.8647 23.5145 13.1902 23.932 12.2986 17.5637C10.8784 18.6657 9.98718 19.889 9.53718 21.1635V21.1635ZM1.16887 17.3313C-0.0711956 26.2037 3.35824 30.909 11.4561 31.4486C11.0272 31.248 10.6126 31.0114 10.2163 30.7449C8.78199 29.7805 7.58705 28.4227 6.83637 26.9712C6.74737 26.7985 6.81518 26.5864 6.98787 26.4974C7.16055 26.4084 7.37268 26.4762 7.46168 26.6489C8.16024 27.9995 9.27237 29.2632 10.6075 30.1609C11.7037 30.898 12.9487 31.3863 14.2344 31.4688L14.2366 31.4785C11.2946 17.8123 4.76862 22.0007 1.16893 17.3313H1.16887Z" fill="#111111"/>
</g>
<defs>
<clipPath id="clip0_459_8660">
<rect width="32" height="32" fill="white" transform="translate(0.666016)"/>
</clipPath>
</defs>
</svg>
